<?xml version="1.0" standalone="no"?>
<!DOCTYPE svg PUBLIC "-//W3C//DTD SVG 20010904//EN"
 "http://www.w3.org/TR/2001/REC-SVG-20010904/DTD/svg10.dtd">
<svg version="1.0" xmlns="http://www.w3.org/2000/svg"
 width="1200.000000pt" height="1200.000000pt" viewBox="0 0 1200.000000 1200.000000"
 preserveAspectRatio="xMidYMid meet">

<g transform="translate(0.000000,1200.000000) scale(0.100000,-0.100000)"
fill="#000000" stroke="none">
<path d="M5846 9294 c-249 -56 -455 -235 -536 -467 -23 -65 -15 -116 26 -158
32 -34 92 -53 136 -44 42 10 95 59 109 103 18 57 66 127 121 177 157 141 402
149 575 18 58 -44 121 -137 144 -215 32 -103 25 -229 -17 -318 -57 -119 -153
-203 -275 -241 -58 -18 -107 -19 -1055 -19 l-994 0 0 -145 0 -145 1008 0
c1142 0 1079 -4 1252 82 116 58 246 186 308 304 111 213 114 468 7 679 -92
181 -270 328 -460 379 -88 24 -264 29 -349 10z"/>
<path d="M4080 7395 l0 -145 1523 -2 c1418 -3 1526 -4 1581 -21 209 -62 367
-222 421 -423 42 -157 9 -349 -84 -481 -64 -91 -127 -145 -226 -193 -214 -104
-440 -90 -610 39 -80 60 -129 130 -200 284 -33 70 -70 97 -135 97 -76 0 -135
-49 -146 -122 -7 -41 37 -159 94 -253 49 -80 180 -215 262 -270 180 -119 406
-161 630 -115 699 142 966 961 481 1473 -137 146 -329 241 -533 267 -53 6
-609 10 -1570 10 l-1488 0 0 -145z"/>
<path d="M4080 6800 l0 -150 554 0 c527 0 557 -1 619 -20 129 -40 245 -158
284 -289 25 -81 22 -210 -6 -282 -48 -126 -140 -217 -267 -265 -62 -24 -79
-26 -169 -21 -73 3 -113 10 -150 26 -79 35 -149 94 -198 168 -56 85 -71 98
-123 112 -75 20 -154 -26 -175 -102 -14 -54 -5 -86 50 -169 99 -151 257 -265
429 -309 94 -24 262 -26 358 -3 339 78 583 404 561 749 -7 113 -27 188 -76
290 -71 147 -187 263 -336 335 -157 76 -133 74 -777 78 l-578 3 0 -151z"/>
<path d="M6141 4622 c-8 -3 -11 -101 -11 -313 l0 -309 110 0 110 0 -2 312 -3
313 -97 0 c-53 0 -101 -1 -107 -3z"/>
<path d="M3980 4278 l0 -278 105 0 105 0 0 278 0 277 -105 0 -105 0 0 -277z"/>
<path d="M4270 4278 l0 -278 23 0 c36 0 98 20 127 42 63 46 95 154 88 288 -9
146 -64 212 -185 222 l-53 5 0 -279z"/>
<path d="M4730 4210 l0 -210 110 0 110 0 0 210 0 210 -110 0 -110 0 0 -210z"/>
<path d="M5120 4411 c-82 -17 -100 -41 -100 -135 l0 -66 100 0 100 0 0 105 0
105 -32 -1 c-18 -1 -49 -4 -68 -8z"/>
<path d="M5569 4411 c-97 -20 -149 -91 -149 -202 0 -122 58 -189 178 -205 l52
-7 -2 209 c-3 234 2 221 -79 205z"/>
<path d="M5712 4263 c5 -217 19 -241 161 -258 l57 -7 0 211 0 211 -111 0 -111
0 4 -157z"/>
<path d="M6457 4404 c-91 -49 -22 -153 94 -142 71 7 99 29 99 78 0 35 -5 43
-32 60 -40 24 -120 26 -161 4z"/>
<path d="M6999 4411 c-98 -20 -149 -90 -149 -207 0 -118 58 -184 176 -199 l50
-7 0 208 c-1 234 4 221 -77 205z"/>
<path d="M7140 4305 l0 -115 111 0 111 0 -4 65 c-6 102 -53 146 -165 158 l-53
6 0 -114z"/>
<path d="M7557 4413 c-15 -14 -7 -91 12 -114 l18 -23 76 65 c41 35 76 67 76
72 1 9 -173 10 -182 0z"/>
<path d="M7737 4308 c-73 -62 -142 -124 -153 -138 -13 -18 -20 -46 -22 -97
l-4 -73 68 0 69 0 125 105 c183 155 180 151 180 240 l0 75 -64 0 -65 0 -134
-112z"/>
<path d="M6430 4106 l0 -106 110 0 110 0 0 42 c0 98 -54 150 -167 163 l-53 6
0 -105z"/>
<path d="M7895 4073 l-79 -68 84 -3 c46 -2 89 -1 97 2 19 8 16 86 -5 114 l-18
23 -79 -68z"/>
<path d="M7140 4050 l0 -50 44 0 c92 0 156 33 156 80 0 19 -6 20 -100 20
l-100 0 0 -50z"/>
</g>
</svg>
